<?xml version="1.0" encoding="UTF-8" standalone="no"?>
<!-- Created with Inkscape (http://www.inkscape.org/) -->

<svg
   xmlns:dc="http://purl.org/dc/elements/1.1/"
   xmlns:cc="http://creativecommons.org/ns#"
   xmlns:rdf="http://www.w3.org/1999/02/22-rdf-syntax-ns#"
   xmlns:svg="http://www.w3.org/2000/svg"
   xmlns="http://www.w3.org/2000/svg"
   xmlns:sodipodi="http://sodipodi.sourceforge.net/DTD/sodipodi-0.dtd"
   xmlns:inkscape="http://www.inkscape.org/namespaces/inkscape"
   id="svg3004"
   version="1.1"
   inkscape:version="0.48.2 r9819"
   width="186.44606"
   height="50"
   xml:space="preserve"
   sodipodi:docname="snac_logo_small_b.svg"><metadata
     id="metadata3010"><rdf:RDF><cc:Work
         rdf:about=""><dc:format>image/svg+xml</dc:format><dc:type
           rdf:resource="http://purl.org/dc/dcmitype/StillImage" /><dc:title /></cc:Work></rdf:RDF></metadata><defs
     id="defs3008"><inkscape:perspective
       sodipodi:type="inkscape:persp3d"
       inkscape:vp_x="0 : 64.631248 : 1"
       inkscape:vp_y="0 : 1000 : 0"
       inkscape:vp_z="738.27502 : 64.631248 : 1"
       inkscape:persp3d-origin="369.13751 : 43.087499 : 1"
       id="perspective3628" /></defs><sodipodi:namedview
     pagecolor="#ffffff"
     bordercolor="#666666"
     borderopacity="1"
     objecttolerance="10"
     gridtolerance="10"
     guidetolerance="10"
     inkscape:pageopacity="0"
     inkscape:pageshadow="2"
     inkscape:window-width="1275"
     inkscape:window-height="701"
     id="namedview3006"
     showgrid="false"
     inkscape:zoom="2.8284271"
     inkscape:cx="47.570686"
     inkscape:cy="27.541983"
     inkscape:window-x="0"
     inkscape:window-y="0"
     inkscape:window-maximized="0"
     inkscape:current-layer="g3014"
     fit-margin-top="0"
     fit-margin-left="0"
     fit-margin-right="0"
     fit-margin-bottom="0" /><g
     id="g3012"
     inkscape:groupmode="layer"
     inkscape:label="ink_ext_XXXXXX"
     transform="matrix(1.25,0,0,-1.25,-382.66686,58.804999)"><g
       id="g3014"
       transform="matrix(0.0736188,0,0,0.06625685,25.760708,-25.472875)"><path
         d="m 4011.48,521.05256 c -75.61,0 -153.36,23.77 -203.04,50.781 l 17.3,108 c 56.15,-36.73 125.27,-61.574 190.07,-61.582 56.16,-0.011 86.4,20.516 86.41,55.067 0,36.719 -22.68,51.851 -105.83,72.379 -126.37,32.41 -179.29,69.136 -179.28,164.179 0.01,90.71904 71.3,154.42904 192.27,154.41904 68.04,0 130.68,-14.05 182.51,-36.735 L 4174.6,919.56056 c -51.83,29.164 -113.39,47.531 -165.23,47.539 -48.6,0.004 -72.36,-19.434 -72.37,-47.516 0,-28.082 19.44,-44.281 97.19,-64.808 135,-34.578 187.92,-71.301 187.91,-169.582 -0.01,-102.598 -73.46,-164.16 -210.62,-164.141"
         style="fill:#231f20;fill-opacity:1;fill-rule:nonzero;stroke:none"
         id="path3016"
         inkscape:connector-curvature="0" /><path
         d="m 4640.03,531.78756 0.04,341.281 c 0,45.363 -19.43,76.691 -66.95,76.695 -39.96,0.008 -81.02,-25.918 -118.82,-65.875 l -0.04,-352.082 -129.6,0.008 0.06,521.66104 110.17,-0.02 11.86,-73.44204 c 48.61,46.43404 103.69,84.22204 173.9,84.22204 97.2,-0.01 149.03,-59.413 149.02,-156.61604 l -0.04,-375.844 -129.6,0.012"
         style="fill:#231f20;fill-opacity:1;fill-rule:nonzero;stroke:none"
         id="path3018"
         inkscape:connector-curvature="0" /><path
         d="m 5184.38,792.01356 c -150.13,-18.344 -185.77,-62.621 -185.77,-112.297 -0.01,-37.804 23.75,-60.48 63.71,-60.488 44.28,-0.012 85.32,21.59 122.05,56.141 l 0.01,116.644 z m 18.33,-260.277 -10.79,68.039 c -42.12,-44.278 -96.13,-78.84 -173.89,-78.82 -88.56,0 -147.96,54.015 -147.95,144.726 0.01,126.367 103.7,181.442 314.31,201.934 l 0,15.121 c 0,56.164 -32.39,77.765 -89.63,77.769 -60.49,0.004 -117.72,-17.269 -173.9,-42.097 l -16.19,103.67904 c 60.49,23.758 124.21,42.108 207.38,42.098 135,-0.01 201.95,-49.695 201.94,-174.97704 l -0.04,-357.492 -111.24,0.02"
         style="fill:#231f20;fill-opacity:1;fill-rule:nonzero;stroke:none"
         id="path3020"
         inkscape:connector-curvature="0" /><path
         d="m 5662.77,521.96256 c -144.72,0.008 -247.32,97.227 -247.3,267.871 0.02,181.438 113.44,274.31204 254.93,274.30204 68.03,-0.01 122.04,-20.53 159.82,-44.298 l -18.37,-116.64404 c -42.12,31.328 -83.14,48.613 -134.99,48.617 -76.68,0.008 -130.69,-55.07 -130.7,-158.75 -0.01,-108.004 59.38,-159.84 134.98,-159.859 45.36,0 89.65,12.949 137.18,49.668 l 16.19,-111.239 c -48.62,-33.476 -102.62,-49.679 -171.74,-49.668"
         style="fill:#231f20;fill-opacity:1;fill-rule:nonzero;stroke:none"
         id="path3022"
         inkscape:connector-curvature="0" /></g></g></svg>