<?xml version="1.0" encoding="UTF-8" standalone="no"?>
<!-- Created with Inkscape (http://www.inkscape.org/) -->

<svg
   xmlns:dc="http://purl.org/dc/elements/1.1/"
   xmlns:cc="http://creativecommons.org/ns#"
   xmlns:rdf="http://www.w3.org/1999/02/22-rdf-syntax-ns#"
   xmlns:svg="http://www.w3.org/2000/svg"
   xmlns="http://www.w3.org/2000/svg"
   xmlns:sodipodi="http://sodipodi.sourceforge.net/DTD/sodipodi-0.dtd"
   xmlns:inkscape="http://www.inkscape.org/namespaces/inkscape"
   id="svg3004"
   version="1.1"
   inkscape:version="0.48.2 r9819"
   width="336.68085"
   height="14.581062"
   xml:space="preserve"
   sodipodi:docname="snac_logo.svg"><metadata
     id="metadata3010"><rdf:RDF><cc:Work
         rdf:about=""><dc:format>image/svg+xml</dc:format><dc:type
           rdf:resource="http://purl.org/dc/dcmitype/StillImage" /><dc:title></dc:title></cc:Work></rdf:RDF></metadata><defs
     id="defs3008"><inkscape:perspective
       sodipodi:type="inkscape:persp3d"
       inkscape:vp_x="0 : 64.631248 : 1"
       inkscape:vp_y="0 : 1000 : 0"
       inkscape:vp_z="738.27502 : 64.631248 : 1"
       inkscape:persp3d-origin="369.13751 : 43.087499 : 1"
       id="perspective3628" /></defs><sodipodi:namedview
     pagecolor="#ffffff"
     bordercolor="#666666"
     borderopacity="1"
     objecttolerance="10"
     gridtolerance="10"
     guidetolerance="10"
     inkscape:pageopacity="0"
     inkscape:pageshadow="2"
     inkscape:window-width="1275"
     inkscape:window-height="701"
     id="namedview3006"
     showgrid="false"
     inkscape:zoom="1"
     inkscape:cx="259.97406"
     inkscape:cy="27.195873"
     inkscape:window-x="0"
     inkscape:window-y="0"
     inkscape:window-maximized="0"
     inkscape:current-layer="g3014"
     fit-margin-top="0"
     fit-margin-left="0"
     fit-margin-right="0"
     fit-margin-bottom="0" /><g
     id="g3012"
     inkscape:groupmode="layer"
     inkscape:label="ink_ext_XXXXXX"
     transform="matrix(1.25,0,0,-1.25,-32.200885,23.73217)"><g
       id="g3014"
       transform="matrix(0.0736188,0,0,0.06625685,25.760708,-25.472875)"><path
         d="m 45.1211,495.359 c -16.8008,0 -34.082,5.293 -45.1211,11.289 l 3.83594,24.004 c 12.48436,-8.164 27.84376,-13.691 42.24996,-13.691 12.4805,0 19.1953,4.562 19.1953,12.246 0,8.164 -5.039,11.523 -23.5117,16.086 -28.082,7.195 -39.84372,15.359 -39.84372,36.484 0.00391,20.164 15.84372,34.325 42.72652,34.317 15.125,0 29.043,-3.117 40.5625,-8.156 l -3.8437,-24.004 c -11.5234,6.476 -25.1992,10.558 -36.7188,10.558 -10.8007,0.008 -16.0859,-4.316 -16.0859,-10.558 0,-6.239 4.3203,-9.844 21.5977,-14.403 30.0078,-7.687 41.7656,-15.851 41.7578,-37.687 0,-22.813 -16.3164,-36.485 -46.8008,-36.485"
         style="fill:#231f20;fill-opacity:1;fill-rule:nonzero;stroke:none"
         id="path3116"
         inkscape:connector-curvature="0" /><path
         d="m 162.965,592.324 c -17.043,0 -26.164,-15.117 -26.164,-36.476 -0.004,-21.368 9.355,-36.973 26.16,-36.973 17.762,0 26.879,15.117 26.883,36.719 0,21.367 -9.602,36.73 -26.879,36.73 z m -0.004,-96.972 c -31.445,0.007 -54.246,22.566 -54.238,60.253 0.004,37.684 22.8,60.477 54.484,60.477 31.688,0 54.727,-22.566 54.723,-60.254 -0.004,-37.676 -23.285,-60.488 -54.969,-60.476"
         style="fill:#231f20;fill-opacity:1;fill-rule:nonzero;stroke:none"
         id="path3118"
         inkscape:connector-curvature="0" /><path
         d="m 290.156,495.574 c -32.164,0.012 -54.961,21.621 -54.957,59.531 0.004,40.333 25.207,60.969 56.649,60.957 15.121,0 27.121,-4.55 35.523,-9.832 l -4.086,-25.929 c -9.359,6.965 -18.48,10.801 -30.004,10.801 -17.043,0.011 -29.039,-12.227 -29.039,-35.274 -0.004,-24.004 13.196,-35.527 29.996,-35.527 10.082,0 19.922,2.883 30.485,11.035 l 3.597,-24.715 c -10.8,-7.441 -22.8,-11.047 -38.164,-11.047"
         style="fill:#231f20;fill-opacity:1;fill-rule:nonzero;stroke:none"
         id="path3120"
         inkscape:connector-curvature="0" /><path
         d="m 352.793,497.734 0.012,115.926 28.8,0 -0.007,-115.926 -28.805,0 z m 14.652,135.371 c -9.597,0 -17.277,6.719 -17.273,16.317 0,9.844 7.68,16.808 17.277,16.808 9.363,0 17.043,-6.964 17.043,-16.808 -0.004,-9.61 -7.683,-16.317 -17.047,-16.317"
         style="fill:#231f20;fill-opacity:1;fill-rule:nonzero;stroke:none"
         id="path3122"
         inkscape:connector-curvature="0" /><path
         d="m 475.445,555.574 c -33.367,-4.082 -41.289,-13.926 -41.289,-24.969 0,-8.398 5.278,-13.437 14.16,-13.437 9.844,0 18.957,4.793 27.122,12.48 l 0.007,25.926 z m 4.071,-57.851 -2.399,15.117 c -9.359,-9.844 -21.359,-17.52 -38.64,-17.52 -19.684,0 -32.887,12.012 -32.887,32.168 0.008,28.086 23.047,40.332 69.855,44.883 l 0,3.359 c 0,12.481 -7.199,17.286 -19.918,17.286 -13.441,0 -26.168,-3.836 -38.648,-9.356 l -3.598,23.039 c 13.442,5.281 27.602,9.356 46.082,9.356 30.008,-0.012 44.891,-11.047 44.883,-38.887 l -0.004,-79.445 -24.726,0"
         style="fill:#231f20;fill-opacity:1;fill-rule:nonzero;stroke:none"
         id="path3124"
         inkscape:connector-curvature="0" /><path
         d="m 533.988,497.715 0.016,168.738 28.805,4.551 -0.016,-173.289 -28.805,0"
         style="fill:#231f20;fill-opacity:1;fill-rule:nonzero;stroke:none"
         id="path3126"
         inkscape:connector-curvature="0" /><path
         d="m 714.711,497.703 0.008,75.84 c 0,10.078 -4.324,17.043 -14.883,17.043 -8.879,0 -18,-5.754 -26.402,-14.641 l -0.004,-78.242 -28.801,0 0.012,115.93 24.476,0 2.641,-16.321 c 10.801,10.313 23.043,18.711 38.64,18.711 21.606,0 33.125,-13.203 33.122,-34.804 l -0.004,-83.524 -28.805,0.008"
         style="fill:#231f20;fill-opacity:1;fill-rule:nonzero;stroke:none"
         id="path3128"
         inkscape:connector-curvature="0" /><path
         d="m 795.113,568.016 46.328,0 c -1.925,18 -9.117,28.078 -23.039,28.086 -11.523,0 -21.129,-9.364 -23.289,-28.086 z m 27.836,-72.735 c -32.64,0 -56.64,18.496 -56.637,60.254 0.004,37.688 22.325,60.488 52.809,60.488 34.805,-0.007 50.399,-26.171 50.399,-59.05 0,-2.403 -0.239,-5.285 -0.239,-6.965 l -74.648,0 c 1.437,-22.793 13.679,-32.403 31.441,-32.403 14.879,0 27.117,5.528 39.84,14.395 l 3.363,-22.559 c -12.48,-8.632 -27.601,-14.16 -46.328,-14.16"
         style="fill:#231f20;fill-opacity:1;fill-rule:nonzero;stroke:none"
         id="path3130"
         inkscape:connector-curvature="0" /><path
         d="m 936.949,495.75 c -22.804,0.012 -38.164,8.41 -38.164,34.805 l 0.004,59.297 -16.559,0 0.004,23.75 16.559,0 0.008,36.73 28.562,4.316 -0.004,-41.046 23.52,0 3.598,-23.758 -27.122,0 -0.007,-54.485 c 0,-9.363 4.082,-14.402 15.125,-14.402 3.355,0 6.476,0.242 9.121,0.965 l 3.597,-24.246 c -4.562,-0.969 -9.839,-1.926 -18.242,-1.926"
         style="fill:#231f20;fill-opacity:1;fill-rule:nonzero;stroke:none"
         id="path3132"
         inkscape:connector-curvature="0" /><path
         d="m 1096.55,497.422 -26.4,0 -21.36,76.57 -20.88,-76.562 -26.65,0 -34.307,114.015 29.281,3.836 20.396,-78.496 20.89,76.809 25.44,0 20.87,-76.574 19.93,76.562 27.61,0 -34.82,-116.16"
         style="fill:#231f20;fill-opacity:1;fill-rule:nonzero;stroke:none"
         id="path3134"
         inkscape:connector-curvature="0" /><path
         d="m 1193.31,592.215 c -17.04,0 -26.16,-15.117 -26.16,-36.485 -0.01,-21.355 9.35,-36.953 26.16,-36.953 17.75,0 26.88,15.118 26.88,36.719 0,21.359 -9.6,36.719 -26.88,36.719 z m 0,-96.973 c -31.45,0.012 -54.25,22.578 -54.24,60.254 0,37.688 22.8,60.488 54.48,60.488 31.69,-0.007 54.73,-22.578 54.73,-60.254 -0.01,-37.683 -23.29,-60.488 -54.97,-60.488"
         style="fill:#231f20;fill-opacity:1;fill-rule:nonzero;stroke:none"
         id="path3136"
         inkscape:connector-curvature="0" /><path
         d="m 1300.35,564.129 -0.01,-66.484 -28.8,0 0.01,115.917 24.48,0 3.6,-23.281 c 7.68,13.449 19.2,24.727 37.21,25.684 l 4.55,-28.563 c -18,-1.203 -32.64,-10.793 -41.04,-23.273"
         style="fill:#231f20;fill-opacity:1;fill-rule:nonzero;stroke:none"
         id="path3138"
         inkscape:connector-curvature="0" /><path
         d="m 1430.66,495.945 -42.24,59.043 0,-57.363 -28.8,0.012 0.01,168.738 28.8,4.551 -0.01,-105.371 37.69,48 32.64,-0.012 -42.72,-52.313 45.36,-60.734 -30.73,-4.551"
         style="fill:#231f20;fill-opacity:1;fill-rule:nonzero;stroke:none"
         id="path3140"
         inkscape:connector-curvature="0" /><path
         d="m 1517.06,495.215 c -16.8,0.008 -34.08,5.281 -45.12,11.289 l 3.84,23.992 c 12.48,-8.152 27.84,-13.672 42.24,-13.68 12.48,0 19.2,4.559 19.2,12.235 0,8.164 -5.04,11.523 -23.51,16.094 -28.08,7.207 -39.85,15.363 -39.85,36.484 0.01,20.156 15.85,34.316 42.73,34.316 15.12,0 29.04,-3.125 40.56,-8.164 l -3.84,-24.004 c -11.52,6.485 -25.2,10.567 -36.72,10.567 -10.8,0 -16.09,-4.317 -16.09,-10.555 0,-6.242 4.32,-9.836 21.6,-14.406 30.01,-7.676 41.77,-15.848 41.76,-37.695 0,-22.793 -16.32,-36.473 -46.8,-36.473"
         style="fill:#231f20;fill-opacity:1;fill-rule:nonzero;stroke:none"
         id="path3142"
         inkscape:connector-curvature="0" /><path
         d="m 1701.38,555.449 c -33.36,-4.082 -41.29,-13.918 -41.29,-24.972 0,-8.399 5.28,-13.438 14.16,-13.438 9.85,0 18.96,4.805 27.13,12.481 l 0,25.929 z m 4.07,-57.851 -2.39,15.125 c -9.36,-9.844 -21.37,-17.52 -38.65,-17.52 -19.68,0 -32.88,12.004 -32.88,32.168 0,28.086 23.05,40.313 69.85,44.883 l 0,3.359 c 0,12.481 -7.2,17.278 -19.92,17.278 -13.44,0 -26.16,-3.84 -38.64,-9.356 l -3.6,23.035 c 13.44,5.285 27.6,9.356 46.08,9.356 30,0 44.88,-11.035 44.88,-38.887 l -0.01,-79.441 -24.72,0"
         style="fill:#231f20;fill-opacity:1;fill-rule:nonzero;stroke:none"
         id="path3144"
         inkscape:connector-curvature="0" /><path
         d="m 1828.81,497.586 0.01,75.84 c 0,10.09 -4.31,17.051 -14.88,17.051 -8.88,0 -18,-5.762 -26.4,-14.637 l -0.01,-78.254 -28.8,0 0.01,115.937 24.48,0 2.64,-16.328 c 10.81,10.332 23.04,18.723 38.65,18.723 21.6,0 33.11,-13.215 33.11,-34.816 l -0.01,-83.516 -28.8,0"
         style="fill:#231f20;fill-opacity:1;fill-rule:nonzero;stroke:none"
         id="path3146"
         inkscape:connector-curvature="0" /><path
         d="m 1958.18,586.621 c -7.2,3.359 -12.73,5.047 -22.56,5.047 -15.13,0 -25.93,-12.246 -25.93,-37.684 0,-22.57 9.37,-33.125 22.09,-33.125 10.56,0 18.72,6.239 26.4,16.082 l 0,49.68 z m 4.07,-89.055 -2.4,16.086 c -8.4,-9.836 -19.44,-18.476 -35.52,-18.476 -24.48,0 -43.69,18.008 -43.68,57.136 0,43.204 23.77,62.395 50.64,62.395 11.05,0 19.93,-1.926 26.89,-4.328 l 0.01,55.93 28.81,4.558 -0.02,-173.301 -24.73,0"
         style="fill:#231f20;fill-opacity:1;fill-rule:nonzero;stroke:none"
         id="path3148"
         inkscape:connector-curvature="0" /><path
         d="m 2128.82,555.32 c -33.36,-4.082 -41.29,-13.906 -41.29,-24.961 0,-8.398 5.28,-13.437 14.16,-13.437 9.84,0 18.97,4.805 27.13,12.48 l 0,25.918 z m 4.08,-57.84 -2.41,15.125 c -9.36,-9.843 -21.36,-17.527 -38.64,-17.519 -19.69,0 -32.88,11.992 -32.87,32.16 0,28.086 23.04,40.32 69.84,44.883 l 0,3.359 c 0,12.481 -7.19,17.274 -19.92,17.274 -13.44,0 -26.16,-3.828 -38.64,-9.356 l -3.6,23.047 c 13.44,5.274 27.6,9.356 46.08,9.356 30,0 44.88,-11.043 44.88,-38.887 l -0.01,-79.453 -24.71,0.011"
         style="fill:#231f20;fill-opacity:1;fill-rule:nonzero;stroke:none"
         id="path3150"
         inkscape:connector-curvature="0" /><path
         d="m 2214.99,563.953 -0.01,-66.484 -28.81,0 0.01,115.937 24.48,-0.008 3.6,-23.281 c 7.68,13.445 19.2,24.715 37.21,25.672 l 4.56,-28.555 c -18.01,-1.191 -32.65,-10.8 -41.04,-23.281"
         style="fill:#231f20;fill-opacity:1;fill-rule:nonzero;stroke:none"
         id="path3152"
         inkscape:connector-curvature="0" /><path
         d="m 2320.11,495.301 c -32.16,0 -54.96,21.601 -54.95,59.531 0,40.324 25.21,60.957 56.64,60.957 15.13,0 27.13,-4.57 35.53,-9.844 l -4.08,-25.918 c -9.37,6.953 -18.49,10.801 -30,10.801 -17.04,0 -29.05,-12.246 -29.05,-35.281 0,-24.004 13.21,-35.52 30,-35.52 10.08,0 19.93,2.871 30.48,11.035 l 3.6,-24.726 c -10.8,-7.441 -22.81,-11.035 -38.17,-11.035"
         style="fill:#231f20;fill-opacity:1;fill-rule:nonzero;stroke:none"
         id="path3154"
         inkscape:connector-curvature="0" /><path
         d="m 2451.64,497.449 0.01,75.84 c 0,10.078 -4.32,17.043 -14.89,17.043 -8.87,0.008 -18,-5.754 -26.39,-14.641 l -0.01,-78.242 -28.81,0 0.02,168.742 28.81,4.559 -0.01,-72.012 c 9.6,8.887 21.6,17.043 36.96,17.032 21.6,0 33.11,-13.204 33.11,-34.805 l -0.01,-83.516 -28.79,0"
         style="fill:#231f20;fill-opacity:1;fill-rule:nonzero;stroke:none"
         id="path3156"
         inkscape:connector-curvature="0" /><path
         d="m 2510.42,497.441 0.01,115.926 28.81,0 -0.01,-115.937 -28.81,0.011 z m 14.66,135.371 c -9.6,0 -17.27,6.719 -17.27,16.317 0,9.844 7.67,16.809 17.27,16.809 9.37,-0.012 17.04,-6.965 17.04,-16.809 0,-9.609 -7.67,-16.328 -17.04,-16.317"
         style="fill:#231f20;fill-opacity:1;fill-rule:nonzero;stroke:none"
         id="path3158"
         inkscape:connector-curvature="0" /><path
         d="m 2628.03,496.707 -28.81,0 -40.06,114.492 30.24,3.848 25.44,-82.332 24.96,80.633 28.8,0 -40.57,-116.641"
         style="fill:#231f20;fill-opacity:1;fill-rule:nonzero;stroke:none"
         id="path3160"
         inkscape:connector-curvature="0" /><path
         d="m 2746.87,555.262 c -33.36,-4.082 -41.29,-13.914 -41.29,-24.961 0,-8.399 5.27,-13.438 14.16,-13.438 9.84,0 18.97,4.797 27.13,12.481 l 0,25.918 z m 4.07,-57.852 -2.4,15.129 c -9.37,-9.844 -21.37,-17.519 -38.64,-17.519 -19.69,0 -32.88,12 -32.87,32.168 0,28.085 23.03,40.32 69.84,44.871 l 0,3.359 c 0,12.48 -7.2,17.285 -19.92,17.285 -13.44,0 -26.16,-3.828 -38.64,-9.355 l -3.61,23.047 c 13.45,5.273 27.61,9.355 46.09,9.355 30,0 44.88,-11.043 44.88,-38.887 l -0.01,-79.453 -24.72,0"
         style="fill:#231f20;fill-opacity:1;fill-rule:nonzero;stroke:none"
         id="path3162"
         inkscape:connector-curvature="0" /><path
         d="m 2804.93,497.41 0.02,168.731 28.8,4.562 -0.01,-173.293 -28.81,0"
         style="fill:#231f20;fill-opacity:1;fill-rule:nonzero;stroke:none"
         id="path3164"
         inkscape:connector-curvature="0" /><path
         d="m 2963.57,495.242 c -32.16,0 -54.96,21.602 -54.95,59.524 0,40.32 25.2,60.964 56.64,60.964 15.13,-0.007 27.13,-4.57 35.53,-9.843 l -4.09,-25.926 c -9.36,6.961 -18.48,10.801 -30,10.809 -17.04,0 -29.04,-12.247 -29.04,-35.293 0,-24.004 13.2,-35.516 30,-35.516 10.08,-0.012 19.92,2.879 30.48,11.035 l 3.59,-24.719 c -10.8,-7.441 -22.8,-11.043 -38.16,-11.035"
         style="fill:#231f20;fill-opacity:1;fill-rule:nonzero;stroke:none"
         id="path3166"
         inkscape:connector-curvature="0" /><path
         d="m 3072.78,591.953 c -17.04,0.008 -26.16,-15.117 -26.16,-36.476 0,-21.368 9.35,-36.973 26.15,-36.973 17.76,0 26.89,15.117 26.89,36.719 0,21.367 -9.6,36.73 -26.88,36.73 z m -0.01,-96.973 c -31.44,0.008 -54.24,22.567 -54.23,60.262 0,37.676 22.8,60.469 54.48,60.469 31.68,0 54.73,-22.566 54.73,-60.254 -0.01,-37.676 -23.29,-60.477 -54.98,-60.477"
         style="fill:#231f20;fill-opacity:1;fill-rule:nonzero;stroke:none"
         id="path3168"
         inkscape:connector-curvature="0" /><path
         d="m 3220.61,497.371 0.01,75.84 c 0,10.078 -4.32,17.051 -14.88,17.051 -8.88,0 -18,-5.762 -26.4,-14.649 l -0.01,-78.242 -28.81,0 0.01,115.938 24.48,-0.008 2.65,-16.321 c 10.8,10.325 23.04,18.723 38.64,18.723 21.61,-0.012 33.12,-13.215 33.12,-34.816 l -0.01,-83.516 -28.8,0"
         style="fill:#231f20;fill-opacity:1;fill-rule:nonzero;stroke:none"
         id="path3170"
         inkscape:connector-curvature="0" /><path
         d="m 3321.89,495.438 c -22.8,0 -38.16,8.398 -38.15,34.804 l 0,59.289 -16.57,0 0,23.758 16.57,0 0.01,36.719 28.56,4.328 -0.01,-41.047 23.52,0 3.6,-23.769 -27.12,0.011 0,-54.484 c 0,-9.363 4.07,-14.414 15.12,-14.414 3.36,0 6.48,0.246 9.12,0.969 l 3.59,-24.25 c -4.56,-0.957 -9.84,-1.914 -18.24,-1.914"
         style="fill:#231f20;fill-opacity:1;fill-rule:nonzero;stroke:none"
         id="path3172"
         inkscape:connector-curvature="0" /><path
         d="m 3384.05,567.684 46.33,-0.008 c -1.93,17.996 -9.13,28.074 -23.05,28.086 -11.51,0 -21.12,-9.367 -23.28,-28.078 z m 27.83,-72.735 c -32.64,0 -56.64,18.489 -56.63,60.254 0,37.676 22.32,60.481 52.8,60.481 34.81,-0.012 50.4,-26.164 50.4,-59.055 0,-2.402 -0.23,-5.274 -0.23,-6.953 l -74.65,0 c 1.44,-22.801 13.67,-32.403 31.43,-32.403 14.89,0 27.13,5.52 39.86,14.395 l 3.35,-22.559 c -12.48,-8.64 -27.61,-14.16 -46.33,-14.16"
         style="fill:#231f20;fill-opacity:1;fill-rule:nonzero;stroke:none"
         id="path3174"
         inkscape:connector-curvature="0" /><path
         d="m 3548.21,495.652 -24.72,41.524 -23.05,-39.832 -28.56,0 36.73,58.328 -34.56,55.441 29.28,3.836 22.09,-38.164 21.6,36.485 28.32,-0.008 -34.81,-55.196 36.96,-58.574 -29.28,-3.84"
         style="fill:#231f20;fill-opacity:1;fill-rule:nonzero;stroke:none"
         id="path3176"
         inkscape:connector-curvature="0" /><path
         d="m 3640.4,495.41 c -22.81,0 -38.17,8.406 -38.16,34.805 l 0,59.285 -16.56,0 0,23.762 16.56,0 0.01,36.726 28.57,4.317 -0.01,-41.055 23.51,0 3.6,-23.758 -27.11,0.008 0,-54.492 c 0,-9.356 4.07,-14.395 15.11,-14.395 3.36,0 6.49,0.235 9.12,0.957 l 3.6,-24.246 c -4.56,-0.957 -9.85,-1.914 -18.24,-1.914"
         style="fill:#231f20;fill-opacity:1;fill-rule:nonzero;stroke:none"
         id="path3178"
         inkscape:connector-curvature="0" /></g></g></svg>