<?xml version="1.0" encoding="UTF-8"?>
<svg xmlns="http://www.w3.org/2000/svg" xmlns:xlink="http://www.w3.org/1999/xlink" width="12pt" height="12pt" viewBox="0 0 12 12" version="1.1">
<g id="surface1">
<path style=" stroke:none;fill-rule:nonzero;fill:rgb(67.843137%,12.156863%,38.823529%);fill-opacity:1;" d="M 3.648438 11.5 C 2.96875 11.210938 2.363281 10.808594 1.839844 10.304688 C 1.320312 9.804688 0.882812 9.214844 0.558594 8.527344 C 0.234375 7.828125 0 7 0 6.019531 C 0 5.011719 0.21875 4.21875 0.539062 3.5 C 1.152344 2.128906 2.242188 1.070312 3.648438 0.480469 C 4.355469 0.179688 5.214844 -0.0390625 6.238281 0.0078125 C 7.1875 0.046875 7.96875 0.292969 8.667969 0.640625 C 9.984375 1.292969 11.035156 2.421875 11.574219 3.859375 C 11.855469 4.613281 12.027344 5.519531 11.941406 6.519531 C 11.859375 7.441406 11.589844 8.207031 11.226562 8.867188 C 10.691406 9.835938 9.902344 10.640625 8.960938 11.171875 C 8.652344 11.347656 8.347656 11.496094 8.035156 11.613281 C 7.675781 11.746094 7.296875 11.828125 6.921875 11.898438 C 6.542969 11.96875 6.152344 11.972656 5.820312 11.964844 C 5.09375 11.953125 4.335938 11.792969 3.648438 11.5 Z "/>
<path style=" stroke:none;fill-rule:nonzero;fill:rgb(100%,100%,100%);fill-opacity:1;" d="M 3.902344 2.492188 C 3.902344 2.4375 3.902344 2.382812 3.902344 2.324219 C 4.625 2.324219 5.347656 2.324219 6.066406 2.324219 C 6.074219 2.324219 6.082031 2.324219 6.089844 2.324219 C 6.089844 2.324219 6.09375 2.324219 6.09375 2.324219 C 6.171875 2.324219 6.238281 2.328125 6.308594 2.332031 C 6.3125 2.332031 6.316406 2.332031 6.320312 2.332031 C 6.390625 2.335938 6.449219 2.347656 6.519531 2.347656 C 6.523438 2.355469 6.53125 2.351562 6.542969 2.351562 C 6.589844 2.351562 6.625 2.367188 6.675781 2.367188 C 6.675781 2.375 6.683594 2.375 6.695312 2.371094 C 6.777344 2.382812 6.847656 2.402344 6.929688 2.414062 C 6.933594 2.421875 6.957031 2.417969 6.96875 2.425781 C 7.035156 2.441406 7.101562 2.460938 7.167969 2.480469 C 7.171875 2.480469 7.171875 2.480469 7.175781 2.480469 C 7.203125 2.492188 7.234375 2.503906 7.269531 2.511719 C 7.269531 2.523438 7.289062 2.515625 7.292969 2.527344 C 7.359375 2.546875 7.414062 2.578125 7.476562 2.597656 C 7.476562 2.605469 7.480469 2.605469 7.488281 2.605469 C 7.648438 2.691406 7.796875 2.789062 7.929688 2.90625 C 7.949219 2.933594 7.972656 2.957031 8 2.980469 C 8 2.984375 8.003906 2.988281 8.007812 2.984375 C 8.019531 3.003906 8.03125 3.027344 8.054688 3.039062 C 8.0625 3.054688 8.070312 3.070312 8.089844 3.078125 C 8.226562 3.273438 8.347656 3.488281 8.394531 3.773438 C 8.398438 3.773438 8.398438 3.773438 8.402344 3.773438 C 8.398438 3.792969 8.40625 3.804688 8.40625 3.820312 C 8.414062 3.84375 8.414062 3.875 8.421875 3.898438 C 8.421875 3.902344 8.421875 3.90625 8.421875 3.914062 C 8.433594 3.980469 8.433594 4.058594 8.441406 4.132812 C 8.441406 4.140625 8.441406 4.148438 8.441406 4.160156 C 8.441406 4.175781 8.441406 4.195312 8.441406 4.210938 C 8.441406 4.21875 8.441406 4.222656 8.441406 4.226562 C 8.441406 4.242188 8.441406 4.261719 8.441406 4.277344 C 8.441406 4.28125 8.441406 4.285156 8.441406 4.285156 C 8.441406 4.300781 8.441406 4.3125 8.441406 4.324219 C 8.425781 4.328125 8.4375 4.355469 8.433594 4.367188 C 8.425781 4.523438 8.390625 4.648438 8.355469 4.777344 C 8.347656 4.78125 8.347656 4.789062 8.347656 4.792969 C 8.324219 4.851562 8.296875 4.90625 8.273438 4.964844 C 8.261719 4.976562 8.257812 4.996094 8.246094 5.003906 C 8.210938 5.082031 8.160156 5.144531 8.113281 5.210938 C 8.101562 5.222656 8.089844 5.226562 8.089844 5.246094 C 8.042969 5.277344 8.019531 5.328125 7.972656 5.359375 C 7.953125 5.375 7.9375 5.390625 7.921875 5.414062 C 7.898438 5.417969 7.886719 5.441406 7.867188 5.453125 C 7.859375 5.457031 7.851562 5.460938 7.847656 5.472656 C 7.832031 5.476562 7.824219 5.492188 7.808594 5.5 C 7.796875 5.507812 7.78125 5.511719 7.773438 5.527344 C 7.65625 5.601562 7.527344 5.671875 7.394531 5.734375 C 7.492188 5.765625 7.589844 5.800781 7.679688 5.839844 C 7.683594 5.84375 7.6875 5.847656 7.695312 5.847656 C 7.777344 5.886719 7.859375 5.929688 7.941406 5.972656 C 7.941406 5.976562 7.941406 5.980469 7.949219 5.980469 C 8.03125 6.03125 8.105469 6.089844 8.179688 6.144531 C 8.179688 6.148438 8.183594 6.152344 8.1875 6.152344 C 8.433594 6.375 8.617188 6.65625 8.695312 7.046875 C 8.703125 7.058594 8.695312 7.089844 8.707031 7.097656 C 8.707031 7.101562 8.707031 7.105469 8.707031 7.105469 C 8.707031 7.121094 8.707031 7.136719 8.714844 7.144531 C 8.714844 7.148438 8.714844 7.148438 8.714844 7.152344 C 8.804688 7.894531 8.597656 8.503906 8.246094 8.871094 C 7.847656 9.257812 7.308594 9.519531 6.582031 9.578125 C 5.761719 9.648438 4.8125 9.585938 3.902344 9.605469 M 7.09375 8.199219 C 7.472656 7.945312 7.484375 7.019531 7.148438 6.710938 C 7.125 6.683594 7.101562 6.660156 7.074219 6.640625 C 6.84375 6.433594 6.511719 6.328125 6.082031 6.320312 C 6.066406 6.304688 6.027344 6.316406 6 6.3125 C 5.746094 6.3125 5.496094 6.3125 5.242188 6.3125 C 5.242188 7.433594 5.242188 7.613281 5.242188 7.984375 C 5.242188 7.988281 5.242188 7.992188 5.242188 7.992188 C 5.242188 8.003906 5.242188 8.015625 5.242188 8.027344 C 5.242188 8.195312 5.242188 8.367188 5.242188 8.539062 C 5.980469 8.546875 6.746094 8.582031 7.09375 8.199219 Z M 5.480469 5.320312 C 5.488281 5.320312 5.5 5.320312 5.507812 5.320312 C 5.601562 5.320312 5.695312 5.320312 5.789062 5.320312 C 5.804688 5.320312 5.820312 5.320312 5.835938 5.320312 C 5.980469 5.320312 6.113281 5.3125 6.234375 5.292969 C 6.246094 5.292969 6.257812 5.296875 6.261719 5.285156 C 6.3125 5.285156 6.355469 5.269531 6.394531 5.257812 C 6.414062 5.257812 6.429688 5.257812 6.441406 5.246094 C 6.445312 5.246094 6.445312 5.246094 6.449219 5.246094 C 6.453125 5.246094 6.460938 5.246094 6.460938 5.238281 C 6.921875 5.113281 7.214844 4.730469 7.121094 4.121094 C 7.121094 4.109375 7.125 4.09375 7.113281 4.09375 C 7.09375 3.957031 7.039062 3.855469 6.976562 3.765625 C 6.972656 3.757812 6.96875 3.753906 6.960938 3.753906 C 6.90625 3.675781 6.839844 3.617188 6.753906 3.574219 C 6.753906 3.570312 6.753906 3.566406 6.746094 3.566406 C 6.71875 3.554688 6.703125 3.53125 6.667969 3.527344 C 6.667969 3.519531 6.664062 3.519531 6.65625 3.519531 C 6.648438 3.507812 6.632812 3.507812 6.621094 3.507812 C 6.59375 3.492188 6.566406 3.476562 6.527344 3.472656 C 6.4375 3.4375 6.324219 3.421875 6.207031 3.40625 C 6.207031 3.40625 6.203125 3.40625 6.203125 3.40625 C 6.195312 3.40625 6.191406 3.40625 6.1875 3.40625 C 6.1875 3.40625 6.183594 3.40625 6.179688 3.40625 C 6.125 3.394531 6.0625 3.398438 6 3.390625 C 6 3.390625 5.996094 3.390625 5.996094 3.390625 C 5.960938 3.390625 5.929688 3.390625 5.894531 3.390625 C 5.890625 3.390625 5.890625 3.390625 5.886719 3.390625 C 5.886719 3.390625 5.882812 3.390625 5.882812 3.390625 C 5.875 3.390625 5.867188 3.390625 5.863281 3.390625 C 5.800781 3.390625 5.738281 3.390625 5.675781 3.390625 C 5.664062 3.390625 5.652344 3.390625 5.640625 3.390625 C 5.574219 3.390625 5.503906 3.390625 5.433594 3.390625 C 5.421875 3.390625 5.414062 3.390625 5.402344 3.390625 C 5.347656 3.390625 5.292969 3.390625 5.242188 3.390625 C 5.242188 3.644531 5.242188 3.894531 5.242188 4.144531 C 5.242188 4.152344 5.242188 4.160156 5.242188 4.164062 C 5.242188 4.25 5.242188 4.332031 5.242188 4.414062 C 5.242188 4.417969 5.242188 4.421875 5.242188 4.425781 C 5.242188 4.550781 5.242188 4.675781 5.242188 4.800781 C 5.242188 4.800781 5.242188 4.804688 5.242188 4.804688 C 5.242188 4.972656 5.242188 5.140625 5.242188 5.304688 C 5.234375 5.324219 5.257812 5.316406 5.269531 5.320312 C 5.285156 5.320312 5.300781 5.320312 5.316406 5.320312 C 5.320312 5.320312 5.324219 5.320312 5.328125 5.320312 C 5.332031 5.320312 5.335938 5.320312 5.339844 5.320312 "/>
<path style=" stroke:none;fill-rule:nonzero;fill:rgb(67.843137%,12.156863%,38.823529%);fill-opacity:1;" d="M 8.054688 3.039062 C 8.074219 3.019531 8.085938 3.058594 8.089844 3.078125 C 8.070312 3.070312 8.0625 3.054688 8.054688 3.039062 Z "/>
<path style=" stroke:none;fill-rule:nonzero;fill:rgb(65.098039%,13.333333%,47.058824%);fill-opacity:1;" d="M 8 2.972656 C 8 2.976562 8 2.976562 8 2.980469 C 7.972656 2.957031 7.949219 2.933594 7.929688 2.90625 C 7.957031 2.925781 7.972656 2.953125 8 2.972656 Z "/>
<path style=" stroke:none;fill-rule:nonzero;fill:rgb(67.843137%,12.156863%,38.823529%);fill-opacity:1;" d="M 7.675781 5.597656 C 7.707031 5.605469 7.65625 5.625 7.640625 5.625 C 7.632812 5.59375 7.683594 5.628906 7.675781 5.597656 Z "/>
<path style=" stroke:none;fill-rule:nonzero;fill:rgb(67.843137%,12.156863%,38.823529%);fill-opacity:1;" d="M 6.082031 6.320312 C 6.511719 6.328125 6.84375 6.433594 7.074219 6.640625 C 7.097656 6.667969 7.121094 6.691406 7.148438 6.710938 C 7.484375 7.019531 7.472656 7.945312 7.09375 8.199219 C 6.746094 8.582031 5.980469 8.546875 5.242188 8.539062 C 5.242188 8.367188 5.242188 8.195312 5.242188 8.027344 C 5.242188 8.015625 5.242188 8.003906 5.242188 7.992188 C 5.242188 7.992188 5.242188 7.988281 5.242188 7.984375 C 5.242188 7.613281 5.242188 7.433594 5.242188 6.3125 "/>
<path style=" stroke:none;fill-rule:nonzero;fill:rgb(65.098039%,13.333333%,47.058824%);fill-opacity:1;" d="M 7.074219 6.640625 C 7.101562 6.660156 7.125 6.683594 7.148438 6.710938 C 7.121094 6.691406 7.097656 6.667969 7.074219 6.640625 Z "/>
<path style=" stroke:none;fill-rule:nonzero;fill:rgb(65.098039%,13.333333%,47.058824%);fill-opacity:1;" d="M 6.082031 6.320312 C 6.054688 6.316406 6.015625 6.328125 6 6.3125 C 6.027344 6.316406 6.066406 6.304688 6.082031 6.320312 Z "/>
<path style=" stroke:none;fill-rule:nonzero;fill:rgb(67.843137%,12.156863%,38.823529%);fill-opacity:1;" d="M 5.675781 3.40625 C 5.675781 3.402344 5.679688 3.398438 5.679688 3.40625 C 5.671875 3.410156 5.664062 3.414062 5.65625 3.417969 C 5.65625 3.410156 5.664062 3.410156 5.660156 3.398438 C 5.652344 3.398438 5.640625 3.398438 5.640625 3.390625 C 5.652344 3.390625 5.664062 3.390625 5.675781 3.390625 C 5.675781 3.398438 5.664062 3.402344 5.675781 3.40625 Z "/>
</g>
</svg>
