<?xml version="1.0" encoding="utf-8"?>
<!-- Generator: Adobe Illustrator 15.1.0, SVG Export Plug-In . SVG Version: 6.00 Build 0)  -->
<!DOCTYPE svg PUBLIC "-//W3C//DTD SVG 1.1//EN" "http://www.w3.org/Graphics/SVG/1.1/DTD/svg11.dtd">
<svg version="1.1" id="Layer_1" xmlns="http://www.w3.org/2000/svg" xmlns:xlink="http://www.w3.org/1999/xlink" x="0px" y="0px"
	 width="432px" height="432px" viewBox="0 0 432 432" enable-background="new 0 0 432 432" xml:space="preserve">
<path fill="#AD1F63" d="M131.28,413.973c-24.34-10.42-46.26-24.869-65.04-42.961c-18.68-18-34.52-39.31-46.08-64.08
	C8.41,281.752,0,252.032,0,216.691c0-36.209,7.81-64.77,19.44-90.72c22.1-49.3,61.3-87.39,111.84-108.72
	c25.46-10.74,56.43-18.66,93.361-17.04c34.101,1.5,62.18,10.35,87.359,22.8c47.48,23.48,85.201,64.16,104.64,115.92
	c10.222,27.19,16.279,59.78,13.199,95.759c-2.84,33.229-12.539,60.721-25.68,84.479c-19.289,34.92-47.729,63.92-81.599,83.041
	c-11.109,6.271-22,11.67-33.359,15.84c-12.941,4.75-26.551,7.771-40.081,10.32c-13.63,2.569-27.66,2.59-39.601,2.399
	C183.41,430.361,156.08,424.592,131.28,413.973z"/>
<g id="XMLID_1_">
	<g>
		<path fill="#FFFFFF" d="M140.448,89.731c0-2,0-4,0-6c26,0,52,0,78,0c0.239,0,0.479,0,0.72,0c0.08,0,0.16,0,0.24,0
			c2.72-0.08,5.23,0.05,7.68,0.24c0.16,0,0.32,0,0.48,0c2.47,0.09,4.64,0.48,7.199,0.48c0.041,0.28,0.381,0.26,0.721,0.24
			c1.81-0.04,2.949,0.57,4.8,0.48c0.04,0.28,0.38,0.26,0.72,0.24c2.971,0.31,5.51,1.05,8.4,1.44c0.24,0.4,1.02,0.26,1.439,0.48
			c2.48,0.56,4.811,1.27,7.2,1.92c0.08,0,0.16,0,0.24,0c1.01,0.51,2.11,0.93,3.36,1.2c0.039,0.44,0.81,0.15,0.959,0.479
			c2.291,0.75,4.23,1.85,6.48,2.64c0.051,0.19,0.2,0.28,0.48,0.24c5.84,3.04,11.119,6.64,15.84,10.8c0.779,0.98,1.66,1.86,2.64,2.64
			c0.011,0.15,0.04,0.28,0.24,0.24c0.479,0.72,0.899,1.5,1.68,1.92c0.261,0.62,0.61,1.15,1.2,1.44c4.99,7.01,9.28,14.72,11.04,24.96
			c0.08,0,0.16,0,0.24,0c-0.14,0.78,0.159,1.12,0.239,1.68c0.221,0.91,0.211,2.03,0.48,2.88c0,0.16,0,0.32,0,0.48
			c0.43,2.45,0.5,5.26,0.721,7.92c0,0.32,0,0.64,0,0.96c0,0.64,0,1.28,0,1.92c0,0.16,0,0.32,0,0.48c0,0.64,0,1.28,0,1.92
			c0,0.08,0,0.16,0,0.24c0,0.48,0,0.96,0,1.44c-0.531,0.03-0.101,1.02-0.24,1.44c-0.28,5.64-1.65,10.19-2.881,14.88
			c-0.229,0.01-0.189,0.29-0.24,0.48c-0.879,2.08-1.779,4.14-2.639,6.24c-0.44,0.36-0.561,1.04-0.961,1.44
			c-1.34,2.74-3.199,4.96-4.8,7.44c-0.41,0.31-0.94,0.5-0.96,1.2c-1.63,1.09-2.47,2.97-4.08,4.08c-0.74,0.54-1.38,1.18-1.92,1.92
			c-0.88,0.24-1.189,1.05-1.92,1.44c-0.34,0.13-0.59,0.37-0.721,0.72c-0.639,0.16-0.909,0.69-1.439,0.96
			c-0.359,0.36-1.01,0.43-1.199,0.96c-4.261,2.78-8.841,5.24-13.681,7.44c3.55,1.18,6.96,2.49,10.319,3.84
			c0.051,0.19,0.201,0.28,0.48,0.24c3.02,1.46,5.94,3.02,8.881,4.56c0.01,0.15,0.039,0.28,0.239,0.24c2.97,1.83,5.63,3.97,8.399,6
			c0.011,0.149,0.041,0.28,0.24,0.24c8.801,8,15.471,18.13,18.24,32.159c0.35,0.451,0.01,1.591,0.48,1.92c0,0.08,0,0.16,0,0.24
			c-0.03,0.59-0.04,1.16,0.24,1.439c0,0.082,0,0.162,0,0.242c3.239,26.76-4.15,48.689-16.801,61.92
			c-14.35,13.939-33.76,23.279-60,25.439c-29.5,2.43-63.63,0.18-96.479,0.961 M255.408,295.172c13.54-9.09,14.08-42.42,1.92-53.52
			c-0.78-0.98-1.66-1.86-2.641-2.641c-8.379-7.38-20.33-11.189-35.76-11.521c-0.49-0.55-1.99-0.091-2.88-0.24
			c-9.12,0-18.24,0-27.36,0c0,40.341,0,46.771,0,60.24c0,0.079,0,0.159,0,0.239c0,0.4,0,0.801,0,1.201c0,6.159,0,12.318,0,18.479
			C215.288,307.691,242.798,308.893,255.408,295.172z M197.328,191.492c0.32,0,0.64,0,0.96,0c3.36,0,6.72,0,10.08,0
			c0.56,0,1.12,0,1.68,0c5.2,0.08,10.05-0.19,14.4-0.96c0.36-0.04,0.89,0.09,0.96-0.24c1.9-0.02,3.32-0.52,4.8-0.96
			c0.63-0.09,1.319-0.12,1.681-0.48c0.079,0,0.159,0,0.239,0c0.19-0.05,0.47-0.01,0.479-0.24c16.511-4.48,27.091-18.36,23.761-40.32
			c-0.04-0.36,0.09-0.89-0.24-0.96c-0.76-4.83-2.67-8.53-5.04-11.76c-0.05-0.27-0.27-0.37-0.48-0.48
			c-1.92-2.72-4.42-4.86-7.439-6.48c-0.01-0.15-0.04-0.28-0.24-0.24c-0.99-0.45-1.68-1.2-2.88-1.44c-0.05-0.19-0.2-0.28-0.479-0.24
			c-0.2-0.36-0.771-0.35-1.2-0.48c-0.97-0.55-2.03-1.01-3.36-1.2c-3.32-1.32-7.39-1.89-11.52-2.4c-0.08,0-0.16,0-0.24,0
			c-0.16,0-0.32,0-0.48,0c-0.08,0-0.16,0-0.24,0c-1.969-0.35-4.329-0.31-6.479-0.48c-0.08,0-0.16,0-0.24,0c-1.2,0-2.4,0-3.6,0
			c-0.08,0-0.16,0-0.24,0c-0.08,0-0.16,0-0.24,0c-0.24,0-0.48,0-0.72,0c-2.24,0-4.48,0-6.72,0c-0.4,0-0.8,0-1.2,0
			c-2.48,0-4.96,0-7.44,0c-0.4,0-0.8,0-1.2,0c-1.92,0-3.84,0-5.76,0c0,9.04,0,18.08,0,27.12c0,0.24,0,0.48,0,0.72
			c0,2.96,0,5.92,0,8.88c0,0.16,0,0.32,0,0.48c0,4.48,0,8.96,0,13.44c0,0.08,0,0.16,0,0.24c0,6,0,12,0,18
			c-0.24,0.72,0.54,0.43,0.96,0.48c0.56,0,1.12,0,1.68,0c0.16,0,0.32,0,0.48,0c0.16,0,0.32,0,0.48,0"/>
		<path fill="#AD1F63" d="M289.968,109.412c0.7-0.76,1.15,0.76,1.2,1.44C290.578,110.563,290.229,110.032,289.968,109.412z"/>
		<path fill="#A62278" d="M288.048,107.012c0,0.08,0,0.16,0,0.24c-0.979-0.78-1.86-1.66-2.64-2.64
			C286.428,105.273,287.027,106.353,288.048,107.012z"/>
		<path fill="#AD1F63" d="M276.288,201.572c1.149,0.17-0.63,0.97-1.2,0.96C274.718,201.442,276.658,202.662,276.288,201.572z"/>
		<path fill="#AD1F63" d="M218.928,227.493c15.43,0.329,27.381,4.141,35.76,11.521c0.78,0.979,1.66,1.858,2.641,2.639
			c12.16,11.1,11.62,44.43-1.92,53.52c-12.61,13.721-40.12,12.521-66.72,12.24c0-6.16,0-12.319,0-18.479c0-0.4,0-0.801,0-1.201
			c0-0.08,0-0.16,0-0.239c0-13.47,0-19.899,0-60.24"/>
		<path fill="#A62278" d="M254.688,239.013c0.98,0.779,1.86,1.659,2.641,2.64C256.348,240.872,255.468,239.992,254.688,239.013z"/>
		<path fill="#A62278" d="M218.928,227.492c-0.89-0.149-2.39,0.311-2.88-0.24C216.938,227.402,218.438,226.941,218.928,227.492z"/>
		<path fill="#AD1F63" d="M204.288,122.612c0-0.13,0.2-0.27,0.24,0c-0.35,0.12-0.6,0.36-0.96,0.48c0.01-0.31,0.31-0.33,0.24-0.72
			c-0.28-0.04-0.68,0.04-0.72-0.24c0.4,0,0.8,0,1.2,0C204.308,122.402,203.938,122.502,204.288,122.612z"/>
	</g>
</g>
</svg>
