<?xml version="1.0" encoding="UTF-8"?>
<svg xmlns="http://www.w3.org/2000/svg" xmlns:xlink="http://www.w3.org/1999/xlink" width="12pt" height="12pt" viewBox="0 0 12 12" version="1.1">
<g id="surface1">
<path style=" stroke:none;fill-rule:nonzero;fill:rgb(23.137255%,54.509804%,25.490196%);fill-opacity:1;" d="M 11.574219 3.859375 C 11.855469 4.613281 12.027344 5.519531 11.941406 6.519531 C 11.859375 7.441406 11.589844 8.207031 11.226562 8.867188 C 10.691406 9.835938 9.902344 10.640625 8.960938 11.171875 C 8.652344 11.347656 8.347656 11.496094 8.035156 11.613281 C 7.675781 11.746094 7.296875 11.828125 6.921875 11.898438 C 6.542969 11.96875 6.152344 11.972656 5.820312 11.964844 C 5.09375 11.953125 4.335938 11.792969 3.648438 11.5 C 2.96875 11.210938 2.363281 10.808594 1.839844 10.304688 C 1.320312 9.804688 0.882812 9.214844 0.558594 8.527344 C 0.234375 7.828125 0 7 0 6.019531 C 0 5.011719 0.21875 4.21875 0.539062 3.5 C 1.152344 2.128906 2.242188 1.070312 3.648438 0.480469 C 4.355469 0.179688 5.214844 -0.0390625 6.238281 0.00390625 C 7.1875 0.046875 7.96875 0.292969 8.667969 0.640625 C 9.984375 1.292969 11.035156 2.421875 11.574219 3.859375 Z M 8.378906 9.140625 C 8.316406 8.738281 8.253906 8.335938 8.191406 7.933594 C 7.84375 8.140625 7.449219 8.375 6.980469 8.484375 C 6.46875 8.605469 5.878906 8.566406 5.453125 8.378906 C 4.660156 8.03125 4.214844 7.199219 4.214844 6.050781 C 4.214844 4.882812 4.589844 4.046875 5.375 3.652344 C 5.777344 3.449219 6.359375 3.390625 6.875 3.507812 C 7.328125 3.609375 7.691406 3.816406 8.007812 4.046875 C 8.023438 4.058594 8.042969 4.085938 8.066406 4.074219 C 8.132812 3.644531 8.195312 3.207031 8.265625 2.777344 C 7.730469 2.425781 7.015625 2.195312 6.101562 2.238281 C 5.753906 2.253906 5.445312 2.3125 5.167969 2.394531 C 3.839844 2.785156 3.015625 3.847656 2.828125 5.378906 C 2.746094 6.027344 2.78125 6.71875 2.945312 7.3125 C 3.242188 8.382812 3.941406 9.214844 4.953125 9.566406 C 5.46875 9.746094 6.171875 9.824219 6.832031 9.726562 C 7.445312 9.632812 7.949219 9.441406 8.378906 9.140625 Z "/>
<path style=" stroke:none;fill-rule:nonzero;fill:rgb(100%,100%,100%);fill-opacity:1;" d="M 8.195312 7.933594 C 8.253906 8.335938 8.316406 8.738281 8.378906 9.140625 C 7.949219 9.441406 7.445312 9.632812 6.832031 9.726562 C 6.171875 9.824219 5.46875 9.746094 4.953125 9.566406 C 3.941406 9.214844 3.242188 8.382812 2.945312 7.3125 C 2.78125 6.71875 2.746094 6.027344 2.828125 5.378906 C 3.015625 3.847656 3.839844 2.785156 5.167969 2.390625 C 5.445312 2.3125 5.753906 2.253906 6.101562 2.238281 C 7.015625 2.195312 7.730469 2.425781 8.265625 2.777344 C 8.195312 3.203125 8.132812 3.640625 8.066406 4.074219 C 8.042969 4.085938 8.023438 4.058594 8.007812 4.046875 C 7.691406 3.816406 7.328125 3.609375 6.875 3.503906 C 6.359375 3.386719 5.777344 3.449219 5.375 3.652344 C 4.589844 4.046875 4.214844 4.882812 4.214844 6.050781 C 4.214844 7.199219 4.660156 8.03125 5.453125 8.378906 C 5.878906 8.5625 6.46875 8.605469 6.980469 8.484375 C 7.449219 8.375 7.84375 8.140625 8.195312 7.933594 Z "/>
</g>
</svg>
