<?xml version="1.0" encoding="utf-8"?>
<!-- Generator: Adobe Illustrator 15.1.0, SVG Export Plug-In . SVG Version: 6.00 Build 0)  -->
<!DOCTYPE svg PUBLIC "-//W3C//DTD SVG 1.1//EN" "http://www.w3.org/Graphics/SVG/1.1/DTD/svg11.dtd">
<svg version="1.1" id="Layer_1" xmlns="http://www.w3.org/2000/svg" xmlns:xlink="http://www.w3.org/1999/xlink" x="0px" y="0px"
	 width="432px" height="432px" viewBox="0 0 432 432" enable-background="new 0 0 432 432" xml:space="preserve">
<g id="XMLID_1_">
	<g>
		<path fill="#3B8B41" d="M416.641,138.932c10.21,27.19,16.28,59.77,13.2,95.759c-2.841,33.229-12.541,60.711-25.682,84.479
			c-19.289,34.921-47.729,63.931-81.6,83.04c-11.11,6.271-22,11.671-33.36,15.841c-12.938,4.75-26.55,7.771-40.079,10.319
			c-13.631,2.57-27.649,2.59-39.601,2.4c-26.11-0.41-53.439-6.181-78.24-16.801c-24.34-10.42-46.26-24.869-65.04-42.96
			c-18.68-18-34.52-39.311-46.08-64.079C8.409,281.75,0,252.031,0,216.691c0-36.21,7.811-64.771,19.439-90.721
			c22.101-49.3,61.3-87.39,111.84-108.72c25.46-10.74,56.431-18.66,93.36-17.04c34.1,1.5,62.189,10.35,87.359,22.8
			C359.471,46.482,397.212,87.172,416.641,138.932z M301.681,329.013c-2.24-14.479-4.521-28.92-6.721-43.44
			c-12.641,7.471-26.829,15.951-43.681,19.921c-18.42,4.351-39.68,2.829-54.96-3.841c-28.568-12.469-44.64-42.469-44.64-83.76
			c0-42.06,13.609-72.14,41.76-86.399c14.51-7.35,35.54-9.5,54-5.28c16.36,3.74,29.41,11.23,40.8,19.44
			c0.562,0.4,1.312,1.39,2.16,0.96c2.44-15.48,4.61-31.23,7.2-46.56c-19.25-12.79-45.101-20.99-78-19.44
			c-12.49,0.59-23.58,2.57-33.601,5.52c-47.75,14.07-77.431,52.44-84.239,107.52c-2.88,23.36-1.57,48.21,4.319,69.6
			c10.609,38.53,35.851,68.42,72.239,81.12c18.551,6.471,43.892,9.359,67.681,5.761C268.091,346.792,286.11,339.832,301.681,329.013
			z"/>
		<path fill="#FFFFFF" d="M294.962,285.572c2.198,14.521,4.479,28.96,6.72,43.439c-15.57,10.819-33.59,17.779-55.681,21.12
			c-23.79,3.601-49.13,0.71-67.681-5.761c-36.39-12.7-61.63-42.59-72.239-81.12c-5.891-21.39-7.199-46.239-4.319-69.6
			c6.81-55.08,36.489-93.45,84.239-107.52c10.021-2.95,21.109-4.93,33.601-5.52c32.899-1.55,58.75,6.65,78,19.44
			c-2.59,15.33-4.761,31.08-7.2,46.56c-0.85,0.43-1.6-0.56-2.16-0.96c-11.39-8.21-24.438-15.7-40.8-19.44
			c-18.46-4.22-39.49-2.07-54,5.28c-28.149,14.26-41.76,44.34-41.76,86.399c0,41.291,16.069,71.291,44.64,83.76
			c15.28,6.67,36.54,8.19,54.96,3.841C268.13,301.523,282.32,293.042,294.962,285.572z"/>
	</g>
</g>
</svg>
