<?xml version="1.0" encoding="utf-8"?>
<!-- Generator: Adobe Illustrator 15.1.0, SVG Export Plug-In . SVG Version: 6.00 Build 0)  -->
<!DOCTYPE svg PUBLIC "-//W3C//DTD SVG 1.1//EN" "http://www.w3.org/Graphics/SVG/1.1/DTD/svg11.dtd">
<svg version="1.1" id="Layer_1" xmlns="http://www.w3.org/2000/svg" xmlns:xlink="http://www.w3.org/1999/xlink" x="0px" y="0px"
	 width="180px" height="180px" viewBox="0 0 180 180" enable-background="new 0 0 180 180" xml:space="preserve">
<path fill="#EA6820" d="M180,172.501c0,4.141-3.357,7.5-7.5,7.5H7.5c-4.142,0-7.5-3.359-7.5-7.5V7.5C0,3.358,3.358,0,7.5,0h165
	c4.143,0,7.5,3.358,7.5,7.5V172.501z"/>
<g id="XMLID_4_">
	<g>
		<path fill="#FFFFFF" d="M150.768,67.202c-2.308,6.105-9.396,12.082-17.969,8.886c-5.833-2.176-10.239-9.174-9.576-17.57
			c0.337-4.237,1.917-7.083,3.356-9.087c1.683-2.341,4.15-4.513,7.01-5.43c0.967-0.309,2.315-0.44,3.554-0.494
			C148.278,43.042,154.976,56.07,150.768,67.202z"/>
		<path fill="#FFFFFF" d="M164.096,108.668c0,14.534,0,29.928,0,44.334c-12.9,0-25.801,0-38.701,0c0-11.688,0-24.263,0-36.237
			c0-4.061,0.279-8.195,0-12.045c-0.543-7.459-5.604-11.56-10.564-14.711c2.255-6.665,7.298-10.54,13.625-13.131
			c1.427,2.152,2.447,4.472,4.048,7.01c1.192,1.888,3.386,5.479,5.726,5.43c2.514-0.053,4.501-3.978,5.628-5.627
			c1.69-2.468,3.02-4.842,4.443-7.306c4.097,1.489,7.605,3.546,10.366,6.417c2.769,2.88,5.048,6.348,5.43,11.062
			C164.482,98.606,164.096,103.649,164.096,108.668z"/>
		<path fill="#FFFFFF" d="M92.616,91.786c-3.883-2.588-6.376-8.298-4.937-14.612c0.675-2.95,2.703-5.689,4.937-7.207
			c1.3-0.885,2.324-1.407,4.641-1.58c5.619-0.416,9.251,3.258,10.761,7.306c2.703,7.232-0.831,15.846-7.404,17.475
			C98.235,93.761,94.842,93.267,92.616,91.786z"/>
		<path fill="#FFFFFF" d="M118.088,106.007c0.292,3.756,0,7.746,0,11.745c0,11.477,0,23.867,0,35.25c-13.064,0-26.13,0-39.195,0
			c0-13.452,0-29.026,0-43.046c0-5.167,0.654-8.404,3.061-11.259c2.151-2.547,4.92-3.678,7.997-5.332
			c2.591,2.172,4.644,4.953,8.589,5.035c4.085,0.091,6.619-3.064,8.589-5.232C112.3,95.604,117.55,99.092,118.088,106.007z"/>
		<path fill="#FFFFFF" d="M33.379,57.033c-6.319-10.399-1.979-24.555,7.306-28.73c1.213-0.547,2.621-0.901,4.344-1.086
			c7.742-0.827,12.966,3.961,15.5,8.984c3.143,6.228,3.061,15.134-0.987,21.227c-2.312,3.484-6.38,6.849-11.354,7.306
			C41.129,65.38,35.975,61.303,33.379,57.033z"/>
		<path fill="#FFFFFF" d="M71.291,105.509c-0.3,3.884,0,7.973,0,11.946c0,11.811,0,23.444,0,35.547c-18.462,0-36.925,0-55.387,0
			c0-16.204,0-33.247,0-49.764c0-5.533-0.387-11.186,0-16.488c0.423-5.792,3.159-10.362,6.417-13.921
			c3.279-3.579,7.561-6.063,12.341-8.096c3.332,3.435,6.812,7.491,12.637,7.602c2.946,0.058,5.603-1.263,7.603-2.666
			c2.143-1.501,3.739-3.406,5.232-5.43c9.692,3.604,18.376,9.762,20.141,21.227c0.243,1.571,0.588,4.274,0.198,5.726
			c-0.206,0.761-2.53,2.176-3.16,2.765C74.405,96.689,71.706,100.186,71.291,105.509z"/>
	</g>
	<g>
	</g>
</g>
</svg>
