<?xml version="1.0" encoding="UTF-8"?>
<svg xmlns="http://www.w3.org/2000/svg" xmlns:xlink="http://www.w3.org/1999/xlink" width="12pt" height="12pt" viewBox="0 0 12 12" version="1.1">
<g id="surface1">
<path style=" stroke:none;fill-rule:nonzero;fill:rgb(91.764706%,40.784314%,12.54902%);fill-opacity:1;" d="M 12 11.5 C 12 11.777344 11.777344 12 11.5 12 L 0.5 12 C 0.222656 12 0 11.777344 0 11.5 L 0 0.5 C 0 0.222656 0.222656 0 0.5 0 L 11.5 0 C 11.777344 0 12 0.222656 12 0.5 Z "/>
<path style=" stroke:none;fill-rule:nonzero;fill:rgb(100%,100%,100%);fill-opacity:1;" d="M 10.050781 4.480469 C 9.898438 4.886719 9.425781 5.285156 8.851562 5.074219 C 8.464844 4.925781 8.171875 4.460938 8.214844 3.902344 C 8.238281 3.617188 8.34375 3.429688 8.4375 3.296875 C 8.550781 3.140625 8.714844 2.996094 8.90625 2.933594 C 8.96875 2.914062 9.058594 2.902344 9.144531 2.902344 C 9.886719 2.871094 10.332031 3.738281 10.050781 4.480469 Z "/>
<path style=" stroke:none;fill-rule:nonzero;fill:rgb(100%,100%,100%);fill-opacity:1;" d="M 10.941406 7.246094 C 10.941406 8.214844 10.941406 9.238281 10.941406 10.199219 C 10.078125 10.199219 9.21875 10.199219 8.359375 10.199219 C 8.359375 9.421875 8.359375 8.582031 8.359375 7.785156 C 8.359375 7.511719 8.378906 7.238281 8.359375 6.980469 C 8.324219 6.484375 7.984375 6.210938 7.65625 6 C 7.804688 5.554688 8.140625 5.296875 8.5625 5.125 C 8.660156 5.269531 8.726562 5.421875 8.832031 5.59375 C 8.914062 5.71875 9.058594 5.957031 9.214844 5.953125 C 9.382812 5.949219 9.515625 5.6875 9.589844 5.578125 C 9.703125 5.414062 9.792969 5.257812 9.886719 5.09375 C 10.160156 5.191406 10.394531 5.328125 10.578125 5.519531 C 10.761719 5.710938 10.914062 5.941406 10.941406 6.257812 C 10.964844 6.574219 10.941406 6.910156 10.941406 7.246094 Z "/>
<path style=" stroke:none;fill-rule:nonzero;fill:rgb(100%,100%,100%);fill-opacity:1;" d="M 6.175781 6.117188 C 5.914062 5.945312 5.75 5.566406 5.84375 5.144531 C 5.890625 4.949219 6.027344 4.765625 6.175781 4.664062 C 6.261719 4.605469 6.328125 4.570312 6.484375 4.558594 C 6.859375 4.53125 7.101562 4.777344 7.203125 5.046875 C 7.382812 5.527344 7.144531 6.101562 6.707031 6.210938 C 6.550781 6.25 6.324219 6.21875 6.175781 6.117188 Z "/>
<path style=" stroke:none;fill-rule:nonzero;fill:rgb(100%,100%,100%);fill-opacity:1;" d="M 7.871094 7.066406 C 7.890625 7.316406 7.871094 7.582031 7.871094 7.851562 C 7.871094 8.617188 7.871094 9.441406 7.871094 10.199219 C 7 10.199219 6.128906 10.199219 5.257812 10.199219 C 5.257812 9.304688 5.257812 8.265625 5.257812 7.332031 C 5.257812 6.984375 5.304688 6.769531 5.464844 6.578125 C 5.605469 6.410156 5.792969 6.335938 5.996094 6.222656 C 6.167969 6.367188 6.304688 6.554688 6.570312 6.558594 C 6.839844 6.566406 7.011719 6.355469 7.140625 6.210938 C 7.488281 6.375 7.835938 6.605469 7.871094 7.066406 Z "/>
<path style=" stroke:none;fill-rule:nonzero;fill:rgb(100%,100%,100%);fill-opacity:1;" d="M 2.226562 3.800781 C 1.804688 3.109375 2.09375 2.164062 2.710938 1.886719 C 2.792969 1.851562 2.886719 1.828125 3 1.816406 C 3.519531 1.757812 3.867188 2.078125 4.035156 2.414062 C 4.246094 2.828125 4.238281 3.421875 3.96875 3.828125 C 3.816406 4.0625 3.542969 4.285156 3.210938 4.316406 C 2.742188 4.359375 2.398438 4.085938 2.226562 3.800781 Z "/>
<path style=" stroke:none;fill-rule:nonzero;fill:rgb(100%,100%,100%);fill-opacity:1;" d="M 4.753906 7.035156 C 4.734375 7.292969 4.753906 7.566406 4.753906 7.832031 C 4.753906 8.617188 4.753906 9.394531 4.753906 10.199219 C 3.523438 10.199219 2.292969 10.199219 1.058594 10.199219 C 1.058594 9.121094 1.058594 7.984375 1.058594 6.882812 C 1.058594 6.511719 1.035156 6.136719 1.058594 5.785156 C 1.089844 5.398438 1.269531 5.09375 1.488281 4.855469 C 1.707031 4.617188 1.992188 4.449219 2.3125 4.316406 C 2.53125 4.542969 2.765625 4.816406 3.152344 4.824219 C 3.351562 4.828125 3.527344 4.738281 3.660156 4.644531 C 3.804688 4.542969 3.910156 4.417969 4.007812 4.28125 C 4.65625 4.523438 5.234375 4.933594 5.351562 5.699219 C 5.367188 5.800781 5.390625 5.984375 5.363281 6.078125 C 5.351562 6.128906 5.195312 6.222656 5.152344 6.265625 C 4.960938 6.445312 4.78125 6.679688 4.753906 7.035156 Z "/>
</g>
</svg>
