<?xml version="1.0" encoding="UTF-8"?>
<svg xmlns="http://www.w3.org/2000/svg" xmlns:xlink="http://www.w3.org/1999/xlink" width="12pt" height="12pt" viewBox="0 0 12 12" version="1.1">
<g id="surface1">
<path style=" stroke:none;fill-rule:nonzero;fill:rgb(49.411765%,44.705882%,70.980392%);fill-opacity:1;" d="M 12 11.5 C 12 11.777344 11.777344 12 11.5 12 L 0.5 12 C 0.222656 12 0 11.777344 0 11.5 L 0 0.5 C 0 0.222656 0.222656 0 0.5 0 L 11.5 0 C 11.777344 0 12 0.222656 12 0.5 Z "/>
<path style=" stroke:none;fill-rule:nonzero;fill:rgb(100%,100%,100%);fill-opacity:1;" d="M 1.5 9.199219 L 10.5 9.199219 L 10.5 10.199219 L 1.5 10.199219 Z "/>
<path style=" stroke:none;fill-rule:nonzero;fill:rgb(100%,100%,100%);fill-opacity:1;" d="M 1.5 4.199219 L 10.5 4.199219 L 10.5 5.199219 L 1.5 5.199219 Z "/>
<path style=" stroke:none;fill-rule:nonzero;fill:rgb(100%,100%,100%);fill-opacity:1;" d="M 1.8125 4.949219 L 2.6875 4.949219 L 2.6875 9.449219 L 1.8125 9.449219 Z "/>
<path style=" stroke:none;fill-rule:nonzero;fill:rgb(100%,100%,100%);fill-opacity:1;" d="M 9.3125 4.949219 L 10.1875 4.949219 L 10.1875 9.449219 L 9.3125 9.449219 Z "/>
<path style=" stroke:none;fill-rule:nonzero;fill:rgb(100%,100%,100%);fill-opacity:1;" d="M 4.3125 4.949219 L 5.1875 4.949219 L 5.1875 9.449219 L 4.3125 9.449219 Z "/>
<path style=" stroke:none;fill-rule:nonzero;fill:rgb(100%,100%,100%);fill-opacity:1;" d="M 6.8125 4.949219 L 7.6875 4.949219 L 7.6875 9.449219 L 6.8125 9.449219 Z "/>
<path style="fill:none;stroke-width:12;stroke-linecap:butt;stroke-linejoin:miter;stroke:rgb(100%,100%,100%);stroke-opacity:1;stroke-miterlimit:10;" d="M 30.117188 70.722656 L 90 32.988281 L 150.117188 70.722656 " transform="matrix(0.0666667,0,0,0.0666667,0,0)"/>
</g>
</svg>
