<?xml version="1.0" encoding="utf-8"?>
<!-- Generator: Adobe Illustrator 15.1.0, SVG Export Plug-In . SVG Version: 6.00 Build 0)  -->
<!DOCTYPE svg PUBLIC "-//W3C//DTD SVG 1.1//EN" "http://www.w3.org/Graphics/SVG/1.1/DTD/svg11.dtd">
<svg version="1.1" id="Layer_1" xmlns="http://www.w3.org/2000/svg" xmlns:xlink="http://www.w3.org/1999/xlink" x="0px" y="0px"
	 width="180px" height="180px" viewBox="0 0 180 180" enable-background="new 0 0 180 180" xml:space="preserve">
<path fill="#7E72B5" d="M180,172.501c0,4.141-3.357,7.5-7.5,7.5H7.5c-4.143,0-7.5-3.359-7.5-7.5V7.5C0,3.358,3.357,0,7.5,0h165
	c4.143,0,7.5,3.358,7.5,7.5V172.501z"/>
<g>
	<rect x="22.5" y="138" fill="#FFFFFF" width="135" height="15"/>
	<rect x="22.5" y="63" fill="#FFFFFF" width="135" height="15"/>
	<rect x="27.195" y="74.25" fill="#FFFFFF" width="13.109" height="67.5"/>
	<rect x="139.695" y="74.25" fill="#FFFFFF" width="13.109" height="67.5"/>
	<rect x="64.695" y="74.25" fill="#FFFFFF" width="13.109" height="67.5"/>
	<rect x="102.195" y="74.25" fill="#FFFFFF" width="13.109" height="67.5"/>
	<polyline fill="none" stroke="#FFFFFF" stroke-width="12" stroke-miterlimit="10" points="30.104,70.708 90,33 150.104,70.708 	"/>
</g>
</svg>
