<?xml version="1.0" encoding="utf-8"?>
<!-- Generator: Adobe Illustrator 15.1.0, SVG Export Plug-In . SVG Version: 6.00 Build 0)  -->
<!DOCTYPE svg PUBLIC "-//W3C//DTD SVG 1.1//EN" "http://www.w3.org/Graphics/SVG/1.1/DTD/svg11.dtd">
<svg version="1.1" id="Layer_1" xmlns="http://www.w3.org/2000/svg" xmlns:xlink="http://www.w3.org/1999/xlink" x="0px" y="0px"
	 width="180px" height="180px" viewBox="0 0 180 180" enable-background="new 0 0 180 180" xml:space="preserve">
<path fill="#00ADA7" d="M180,172.502c0,4.141-3.357,7.5-7.5,7.5H7.5c-4.142,0-7.5-3.359-7.5-7.5V7.5C0,3.358,3.358,0,7.5,0h165
	c4.143,0,7.5,3.358,7.5,7.5V172.502z"/>
<g>
	<g id="XMLID_2_">
		<g>
			<path fill="#FFFFFF" d="M128.598,100.155c0,17.298,0,35.118,0,52.845c-25.731,0-51.464,0-77.196,0c0-17.267,0-34.901,0-51.761
				c0-8.491,2.908-14.106,7-18.831c3.993-4.605,9.255-7.974,15.479-10.352c0.628,0.284,0.933,0.961,1.38,1.479
				c2.904,3.356,7.817,7.493,13.901,7.493c7.366,0,11.7-5.562,15.183-9.563c6.663,2.161,12.18,5.521,16.465,10.056
				C125.049,86.007,128.598,91.964,128.598,100.155z"/>
			<path fill="#FFFFFF" d="M107.401,47.705c0.332,6.967-1.573,12.312-4.535,16.366c-2.872,3.932-7.218,7.242-12.916,7.887
				c-6.38,0.723-11.424-2.169-14.887-5.817c-4.827-5.085-8.105-14.377-5.324-24.056c1.52-5.295,4.593-9.33,8.775-12.127
				c2.181-1.462,4.519-2.539,7.69-2.859c6.807-0.69,11.807,2.3,15.084,5.817C104.521,36.379,107.122,41.855,107.401,47.705z"/>
		</g>
		<g>
		</g>
	</g>
</g>
</svg>
