<?xml version="1.0" encoding="UTF-8"?>
<svg xmlns="http://www.w3.org/2000/svg" xmlns:xlink="http://www.w3.org/1999/xlink" width="12pt" height="12pt" viewBox="0 0 12 12" version="1.1">
<g id="surface1">
<path style=" stroke:none;fill-rule:nonzero;fill:rgb(0%,67.843137%,65.490196%);fill-opacity:1;" d="M 12 11.5 C 12 11.777344 11.777344 12 11.5 12 L 0.5 12 C 0.222656 12 0 11.777344 0 11.5 L 0 0.5 C 0 0.222656 0.222656 0 0.5 0 L 11.5 0 C 11.777344 0 12 0.222656 12 0.5 Z "/>
<path style=" stroke:none;fill-rule:nonzero;fill:rgb(100%,100%,100%);fill-opacity:1;" d="M 8.574219 6.675781 C 8.574219 7.832031 8.574219 9.019531 8.574219 10.199219 C 6.859375 10.199219 5.140625 10.199219 3.425781 10.199219 C 3.425781 9.050781 3.425781 7.875 3.425781 6.75 C 3.425781 6.183594 3.621094 5.808594 3.894531 5.492188 C 4.160156 5.1875 4.511719 4.960938 4.925781 4.804688 C 4.96875 4.824219 4.988281 4.867188 5.015625 4.902344 C 5.210938 5.125 5.539062 5.402344 5.945312 5.402344 C 6.433594 5.402344 6.722656 5.03125 6.957031 4.765625 C 7.402344 4.910156 7.769531 5.132812 8.054688 5.433594 C 8.335938 5.734375 8.574219 6.132812 8.574219 6.675781 Z "/>
<path style=" stroke:none;fill-rule:nonzero;fill:rgb(100%,100%,100%);fill-opacity:1;" d="M 7.160156 3.179688 C 7.183594 3.644531 7.054688 4 6.859375 4.269531 C 6.667969 4.535156 6.375 4.753906 5.996094 4.796875 C 5.570312 4.84375 5.234375 4.652344 5.003906 4.410156 C 4.683594 4.070312 4.464844 3.449219 4.648438 2.804688 C 4.75 2.453125 4.957031 2.183594 5.234375 1.996094 C 5.378906 1.898438 5.535156 1.828125 5.746094 1.804688 C 6.199219 1.761719 6.535156 1.960938 6.753906 2.195312 C 6.96875 2.425781 7.140625 2.789062 7.160156 3.179688 Z "/>
</g>
</svg>
