<?xml version="1.0" encoding="UTF-8"?>
<svg xmlns="http://www.w3.org/2000/svg" xmlns:xlink="http://www.w3.org/1999/xlink" width="12pt" height="12pt" viewBox="0 0 12 12" version="1.1">
<g id="surface1">
<path style=" stroke:none;fill-rule:nonzero;fill:rgb(96.862745%,57.254902%,12.941176%);fill-opacity:1;" d="M 11.574219 3.859375 C 11.855469 4.613281 12.027344 5.519531 11.941406 6.519531 C 11.859375 7.441406 11.589844 8.207031 11.226562 8.867188 C 10.691406 9.835938 9.902344 10.640625 8.960938 11.171875 C 8.652344 11.347656 8.347656 11.496094 8.035156 11.613281 C 7.675781 11.746094 7.296875 11.828125 6.921875 11.898438 C 6.542969 11.96875 6.152344 11.972656 5.820312 11.964844 C 5.09375 11.953125 4.335938 11.792969 3.648438 11.5 C 2.96875 11.210938 2.363281 10.808594 1.839844 10.304688 C 1.320312 9.804688 0.882812 9.214844 0.558594 8.527344 C 0.234375 7.828125 0 7 0 6.019531 C 0 5.011719 0.21875 4.21875 0.539062 3.5 C 1.152344 2.128906 2.242188 1.070312 3.648438 0.480469 C 4.355469 0.179688 5.214844 -0.0390625 6.238281 0.00390625 C 7.1875 0.046875 7.96875 0.292969 8.667969 0.640625 C 9.984375 1.292969 11.035156 2.421875 11.574219 3.859375 Z M 10.507812 2.390625 C 10.082031 2.390625 9.65625 2.390625 9.234375 2.390625 C 8.832031 4.09375 8.453125 5.820312 8.039062 7.511719 C 7.59375 5.800781 7.140625 4.097656 6.6875 2.390625 C 6.261719 2.390625 5.835938 2.390625 5.414062 2.390625 C 4.957031 4.101562 4.511719 5.816406 4.054688 7.519531 C 3.710938 6 3.324219 4.476562 2.980469 2.964844 C 2.929688 2.75 2.894531 2.527344 2.820312 2.320312 C 2.378906 2.40625 1.941406 2.496094 1.5 2.578125 C 2.109375 4.953125 2.722656 7.320312 3.332031 9.691406 C 3.730469 9.691406 4.125 9.691406 4.519531 9.691406 C 5.011719 7.929688 5.480469 6.144531 5.980469 4.386719 C 6.457031 6.160156 6.945312 7.921875 7.425781 9.691406 C 7.828125 9.691406 8.226562 9.691406 8.625 9.691406 C 9.253906 7.257812 9.882812 4.828125 10.507812 2.390625 Z "/>
<path style=" stroke:none;fill-rule:nonzero;fill:rgb(100%,100%,100%);fill-opacity:1;" d="M 9.234375 2.390625 C 9.65625 2.390625 10.082031 2.390625 10.507812 2.390625 C 9.882812 4.828125 9.253906 7.257812 8.625 9.691406 C 8.226562 9.691406 7.828125 9.691406 7.425781 9.691406 C 6.945312 7.921875 6.457031 6.160156 5.980469 4.386719 C 5.484375 6.144531 5.011719 7.929688 4.519531 9.691406 C 4.125 9.691406 3.730469 9.691406 3.332031 9.691406 C 2.722656 7.320312 2.109375 4.953125 1.5 2.578125 C 1.941406 2.496094 2.378906 2.40625 2.820312 2.320312 C 2.894531 2.527344 2.929688 2.75 2.980469 2.964844 C 3.324219 4.476562 3.710938 6 4.054688 7.519531 C 4.511719 5.816406 4.957031 4.101562 5.414062 2.390625 C 5.835938 2.390625 6.261719 2.390625 6.6875 2.390625 C 7.140625 4.097656 7.59375 5.800781 8.039062 7.511719 C 8.453125 5.820312 8.832031 4.09375 9.234375 2.390625 Z "/>
</g>
</svg>
