<?xml version="1.0" encoding="utf-8"?>
<!-- Generator: Adobe Illustrator 15.1.0, SVG Export Plug-In . SVG Version: 6.00 Build 0)  -->
<!DOCTYPE svg PUBLIC "-//W3C//DTD SVG 1.1//EN" "http://www.w3.org/Graphics/SVG/1.1/DTD/svg11.dtd">
<svg version="1.1" id="Layer_1" xmlns="http://www.w3.org/2000/svg" xmlns:xlink="http://www.w3.org/1999/xlink" x="0px" y="0px"
	 width="432px" height="432px" viewBox="0 0 432 432" enable-background="new 0 0 432 432" xml:space="preserve">
<g id="XMLID_1_">
	<g>
		<path fill="#F79221" d="M416.64,138.932c10.221,27.19,16.28,59.78,13.2,95.759c-2.84,33.229-12.54,60.721-25.68,84.479
			c-19.29,34.921-47.73,63.921-81.602,83.04c-11.108,6.271-22,11.671-33.358,15.841c-12.94,4.75-26.551,7.771-40.08,10.319
			c-13.631,2.57-27.66,2.59-39.601,2.4c-26.109-0.41-53.439-6.181-78.239-16.801c-24.341-10.42-46.261-24.869-65.04-42.96
			c-18.681-18-34.521-39.311-46.08-64.079C8.41,281.75,0,252.031,0,216.691c0-36.21,7.81-64.771,19.439-90.721
			c22.101-49.3,61.3-87.39,111.841-108.72c25.46-10.74,56.43-18.66,93.359-17.04c34.102,1.5,62.182,10.35,87.36,22.8
			C359.48,46.492,397.2,87.172,416.64,138.932z M378.239,86.132c-15.279,0-30.561,0-45.84,0c-14.46,61.3-28.109,123.41-42.96,184.32
			c-16.101-61.58-32.381-122.98-48.721-184.32c-15.279,0-30.56,0-45.84,0c-16.36,61.48-32.4,123.28-48.96,184.56
			c-12.33-54.649-26.23-109.569-38.641-163.919c-1.779-7.8-3.09-15.73-5.76-23.28c-15.81,3.14-31.58,6.34-47.52,9.36
			c21.909,85.46,43.979,170.74,66,256.08c14.239,0,28.479,0,42.72,0c17.729-63.471,34.649-127.75,52.56-191.04
			c17.17,63.879,34.791,127.29,52.081,191.04c14.399,0,28.8,0,43.199,0C333.12,261.322,355.76,173.813,378.239,86.132z"/>
		<path fill="#FFFFFF" d="M332.4,86.132c15.279,0,30.561,0,45.841,0c-22.48,87.68-45.12,175.19-67.682,262.8
			c-14.398,0-28.8,0-43.199,0c-17.289-63.75-34.909-127.16-52.08-191.04c-17.91,63.29-34.83,127.569-52.561,191.04
			c-14.24,0-28.479,0-42.72,0c-22.021-85.34-44.09-170.62-66-256.08c15.939-3.02,31.71-6.22,47.52-9.36
			c2.67,7.55,3.98,15.479,5.761,23.28c12.409,54.35,26.31,109.27,38.64,163.919c16.56-61.279,32.6-123.08,48.96-184.56
			c15.28,0,30.561,0,45.84,0c16.34,61.34,32.62,122.74,48.722,184.32C304.29,209.543,317.94,147.432,332.4,86.132z"/>
	</g>
</g>
</svg>
